<?xml version="1.0" encoding="UTF-8" standalone="no"?>
<!-- Uploaded to: SVG Repo, www.svgrepo.com, Generator: SVG Repo Mixer Tools -->

<svg
   width="800px"
   height="800px"
   viewBox="0 0 20 20"
   version="1.1"
   id="svg1"
   xmlns="http://www.w3.org/2000/svg"
   xmlns:svg="http://www.w3.org/2000/svg"
   xmlns:rdf="http://www.w3.org/1999/02/22-rdf-syntax-ns#"
   xmlns:cc="http://creativecommons.org/ns#"
   xmlns:dc="http://purl.org/dc/elements/1.1/">
  <title
     id="title1">script [#1603]</title>
  <desc
     id="desc1">Created with Sketch.</desc>
  <defs
     id="defs1" />
  <rect
     style="fill:#3088f0;fill-opacity:0.980392;stroke:#3088f1;stroke-width:0.0073989;stroke-opacity:0.980392"
     id="rect2"
     width="19.997042"
     height="19.997042"
     x="0.0014794526"
     y="0.0014794526"
     ry="6.5602479" />
  <path
     d="m 339.43066,1723.6276 v -3.2552 c 1.79529,0 3.69909,1.46 3.69909,3.2552 z m -1.01224,12 c 0,1.2184 -0.99083,2.2092 -2.20921,2.2092 v -2.2092 c 0,-1.2206 -0.98862,-2.2092 -2.20921,-2.2092 h -4.41842 v -10.3655 c 0,-1.2206 0.98862,-2.8897 2.20921,-2.8897 h 6.62763 z m -3.37236,2.2552 h -7.56909 c -1.39145,0 -2.30757,-2.1079 -2.30757,-3.4993 H 334 c 0.69636,0 1.04606,0.9201 1.04606,1.6165 z m 4.38587,-18.6165 h -7.4201 c -2.19592,0 -3.65087,1.5733 -3.65087,3.7692 v 10.2958 h -3.3077 c -0.54874,0 -0.99409,0.09 -0.99409,0.6391 v 0.9941 c 0,2.1959 1.81,3.7396 4.00592,3.7396 h 7.95267 c 2.19592,0 3.50293,-1.5437 3.50293,-3.7396 v -10.355 h 3.42605 c 0.54874,0 0.99409,-0.031 0.99409,-0.5799 v -0.9941 c 0,-2.1959 -2.31298,-3.7692 -4.5089,-3.7692 z"
     id="script-[#1603]-5"
     style="display:inline;fill:#ffffff;fill-opacity:1"
     transform="matrix(0.83247783,0,0,0.83247783,-268.29655,-1429.3542)" />
  <path
     style="font-size:15.2296px;font-family:Strippy;-inkscape-font-specification:Strippy;letter-spacing:0px;word-spacing:0px;fill:#ffffff;fill-opacity:0.980392;stroke:#3088f1;stroke-width:0.5;stroke-opacity:0.980392"
     d="m 12.271284,12.53103 1.264057,-7.8737034 h 2.619491 L 14.449117,15.318047 H 10.458962 L 9.3319717,9.0434514 8.2049813,15.318047 H 4.2148261 L 2.5091109,4.6573266 H 5.1286021 L 6.3926589,12.53103 7.7480933,4.9619186 H 10.91585 Z"
     id="text1-8"
     aria-label="W" />
  <metadata
     id="metadata4">
    <rdf:RDF>
      <cc:Work
         rdf:about="">
        <dc:title>script [#1603]</dc:title>
      </cc:Work>
    </rdf:RDF>
  </metadata>
</svg>
