<?xml version="1.0" encoding="UTF-8" standalone="no"?>
<!-- Created with Inkscape (http://www.inkscape.org/) -->

<svg
   width="1051.4702mm"
   height="218.42085mm"
   viewBox="0 0 1051.4702 218.42085"
   version="1.1"
   id="svg1"
   xml:space="preserve"
   inkscape:export-filename="wordscript-text-logo.svg"
   inkscape:export-xdpi="96"
   inkscape:export-ydpi="96"
   inkscape:version="1.3.2 (091e20e, 2023-11-25, custom)"
   sodipodi:docname="wordscript-text.svg"
   xmlns:inkscape="http://www.inkscape.org/namespaces/inkscape"
   xmlns:sodipodi="http://sodipodi.sourceforge.net/DTD/sodipodi-0.dtd"
   xmlns="http://www.w3.org/2000/svg"
   xmlns:svg="http://www.w3.org/2000/svg"><sodipodi:namedview
     id="namedview1"
     pagecolor="#ffffff"
     bordercolor="#999999"
     borderopacity="1"
     inkscape:showpageshadow="2"
     inkscape:pageopacity="0"
     inkscape:pagecheckerboard="0"
     inkscape:deskcolor="#d1d1d1"
     inkscape:document-units="mm"
     inkscape:zoom="0.21798798"
     inkscape:cx="2167.5507"
     inkscape:cy="399.10458"
     inkscape:window-width="1920"
     inkscape:window-height="1017"
     inkscape:window-x="-8"
     inkscape:window-y="-8"
     inkscape:window-maximized="1"
     inkscape:current-layer="g1" /><defs
     id="defs1"><inkscape:path-effect
       effect="offset"
       id="path-effect9"
       is_visible="true"
       lpeversion="1.2"
       linejoin_type="miter"
       unit="mm"
       offset="0"
       miter_limit="4"
       attempt_force_join="false"
       update_on_knot_move="true" /><inkscape:path-effect
       effect="offset"
       id="path-effect7"
       is_visible="true"
       lpeversion="1.2"
       linejoin_type="miter"
       unit="mm"
       offset="6"
       miter_limit="4"
       attempt_force_join="false"
       update_on_knot_move="true" /></defs><g
     inkscape:label="Layer 1"
     inkscape:groupmode="layer"
     id="layer1"
     transform="translate(-13.327253,-160.78904)"><g
       id="g1"
       transform="matrix(13.498152,0,0,13.498152,30.315356,135.01848)"><rect
         style="display:none;fill:#3088f0;fill-opacity:0.980392;stroke:#3088f1;stroke-width:0.0073989;stroke-opacity:0.980392"
         id="rect2"
         width="19.997042"
         height="19.997042"
         x="0.0014794526"
         y="0.0014794526"
         ry="6.5602479" /><path
         id="script-[#1603]-5"
         style="display:inline;fill:#3088f1;fill-opacity:0.980392;stroke-width:0.832478"
         inkscape:label="scriptIcon"
         d="m 5.3618795,1.909192 c -1.5395678,0 -2.638347,0.9308767 -2.9478373,2.3160366 H 2.7737559 L 3.3387503,7.7477753 V 5.0614526 c 0,-1.0161225 0.8229792,-2.4056112 1.8390933,-2.4056112 h 5.5173884 v 1.5693872 h 0.842667 V 2.8299958 c 1.494539,0 2.753429,0.7096041 2.753429,2.2040683 l 0.675215,-0.4929102 c 0,-1.828038 -1.599557,-2.6319619 -3.427611,-2.6319619 z m -5.79284692,11.708801 c -0.45681389,0 -0.82758288,0.07492 -0.82758288,0.532036 v 0.827567 c 0,1.828038 1.50679321,3.113134 3.3348479,3.113134 h 6.6204298 c 1.5476096,0 2.5618506,-0.922969 2.8375336,-2.314705 H 10.676743 C 10.55575,16.673852 9.7866324,17.368722 8.8561053,17.368722 V 15.776025 H 7.8839127 c 7.326e-4,0.02081 0.00416,0.04329 0.00416,0.06327 v 1.56739 H 1.5869755 c -1.15835129,0 -1.92098423,-1.75478 -1.92098423,-2.91309 H 0.89705949 L 0.75697844,13.61766 Z m 6.64776832,0.07242 -0.144335,0.803425 h 0.9445044 c 0.037295,0 0.073341,0 0.1082304,0.0092 L 6.9791508,13.690085 Z"
         sodipodi:nodetypes="scccssccccccsscssssscccccscsccccccscc" /><path
         d="M 9.5372179,12.543344 10.801275,4.6696404 h 2.619491 L 11.715051,15.33036 H 7.7248955 L 6.5979051,9.0557652 5.4709147,15.33036 H 1.4807595 L -0.22495566,4.6696404 H 2.3945355 L 3.6585923,12.543344 5.0140267,4.9742324 h 3.1677568 z"
         id="text1-8-9"
         style="font-size:15.2296px;font-family:Strippy;-inkscape-font-specification:Strippy;letter-spacing:0px;word-spacing:0px;fill:#3088f1;fill-opacity:0.980392;stroke-width:0.5;stroke-opacity:0.980392"
         inkscape:label="W"
         aria-label="W"
         inkscape:path-effect="#path-effect9"
         inkscape:original-d="M 9.5372179,12.543344 10.801275,4.6696404 h 2.619491 L 11.715051,15.33036 H 7.7248955 L 6.5979051,9.0557652 5.4709147,15.33036 H 1.4807595 L -0.22495566,4.6696404 H 2.3945355 L 3.6585923,12.543344 5.0140267,4.9742324 h 3.1677568 z" /><path
         d="m 17.83735,4.6696404 q 1.644797,0 2.421506,0.7767096 0.77671,0.7767096 0.77671,2.4215064 v 4.2642876 q 0,1.644797 -0.77671,2.421507 -0.776709,0.776709 -2.421506,0.776709 h -1.066072 q -1.644797,0 -2.421507,-0.776709 -0.776709,-0.77671 -0.776709,-2.421507 V 7.8678564 q 0,-1.6447968 0.776709,-2.4215064 0.77671,-0.7767096 2.421507,-0.7767096 z m 0.426429,3.0002312 q 0,-0.2436736 -0.137067,-0.38074 -0.137066,-0.152296 -0.38074,-0.152296 h -0.883317 q -0.243673,0 -0.38074,0.152296 -0.137066,0.1370664 -0.137066,0.38074 v 4.6602574 q 0,0.243674 0.137066,0.39597 0.137067,0.137066 0.38074,0.137066 h 0.883317 q 0.243674,0 0.38074,-0.137066 0.137067,-0.152296 0.137067,-0.39597 z M 26.091784,15.33036 24.888645,12.436736 H 24.188084 V 15.33036 H 21.416296 V 4.6696404 h 4.035844 q 1.644797,0 2.421507,0.7767096 0.776709,0.7767096 0.776709,2.4215064 v 1.370664 q 0,1.9189296 -1.066072,2.6651796 l 1.431583,3.42666 z m -1.9037,-8.1935244 v 2.8327056 h 1.172679 q 0.243673,0 0.38074,-0.1370664 0.137066,-0.152296 0.137066,-0.3959696 V 7.6698716 q 0,-0.2436736 -0.137066,-0.38074 -0.137067,-0.152296 -0.38074,-0.152296 z m 9.168205,-2.4671952 q 1.644797,0 2.421506,0.7767096 0.77671,0.7767096 0.77671,2.4215064 v 4.2338286 q 0,1.644797 -0.77671,2.421507 -0.776709,0.776709 -2.421506,0.776709 h -1.264057 v 0.03046 H 29.320445 V 4.6696404 Z m 0.426429,3.0002312 q 0,-0.2436736 -0.137067,-0.38074 -0.137066,-0.152296 -0.38074,-0.152296 h -1.172679 v 5.6958704 h 1.172679 q 0.243674,0 0.38074,-0.137066 0.137067,-0.152296 0.137067,-0.39597 z m 7.614814,0.9442352 q 1.50773,0 2.177832,0.837628 0.670103,0.8223982 0.670103,2.7565572 0,1.614338 -0.685332,2.375818 -0.685332,0.74625 -2.162603,0.74625 h -4.279518 v -2.436736 h 4.035844 q 0.243674,0 0.38074,-0.137066 0.137066,-0.152296 0.137066,-0.39597 v -0.73102 q 0,-0.548266 -0.517806,-0.548266 h -1.446812 q -1.492501,0 -2.177833,-0.77671 -0.670102,-0.7767092 -0.670102,-2.497654 0,-1.6143376 0.685332,-2.360588 0.685332,-0.76148 2.162603,-0.76148 h 4.127222 V 7.121606 H 39.95072 q -0.243674,0 -0.38074,0.152296 -0.137067,0.1370664 -0.137067,0.38074 v 0.4264288 q 0,0.533036 0.517807,0.533036 z m 5.924299,3.7160222 q 0,0.243674 0.137067,0.39597 0.137066,0.137066 0.38074,0.137066 h 2.878394 V 15.33036 H 47.74826 q -1.644797,0 -2.421506,-0.776709 -0.77671,-0.77671 -0.77671,-2.421507 V 7.8678564 q 0,-1.6447968 0.77671,-2.4215064 0.776709,-0.7767096 2.421506,-0.7767096 h 2.969772 v 2.4671952 h -2.878394 q -0.243674,0 -0.38074,0.152296 -0.137067,0.1370664 -0.137067,0.38074 z M 55.6981,15.33036 54.494961,12.436736 H 53.7944 V 15.33036 H 51.022613 V 4.6696404 h 4.035843 q 1.644797,0 2.421507,0.7767096 0.776709,0.7767096 0.776709,2.4215064 v 1.370664 q 0,1.9189296 -1.066072,2.6651796 l 1.431583,3.42666 z M 53.7944,7.1368356 v 2.8327056 h 1.172679 q 0.243673,0 0.38074,-0.1370664 0.137066,-0.152296 0.137066,-0.3959696 V 7.6698716 q 0,-0.2436736 -0.137066,-0.38074 -0.137067,-0.152296 -0.38074,-0.152296 z M 61.698548,4.6696404 V 15.33036 H 58.926761 V 4.6696404 Z m 4.492732,0 q 1.644797,0 2.421507,0.7767096 0.776709,0.7767096 0.776709,2.4215064 v 1.370664 q 0,1.6447966 -0.776709,2.4215066 -0.77671,0.776709 -2.421507,0.776709 H 64.927224 V 15.33036 H 62.155436 V 4.6696404 Z m 0.426429,3.0002312 q 0,-0.2436736 -0.137066,-0.38074 -0.137067,-0.152296 -0.38074,-0.152296 h -1.172679 v 2.8327056 h 1.172679 q 0.243673,0 0.38074,-0.1370664 0.137066,-0.152296 0.137066,-0.3959696 z M 76.6388,4.6696404 V 7.1368356 H 74.552345 V 15.33036 H 71.780557 V 7.1368356 H 69.694102 V 4.6696404 Z"
         id="text1-8-6"
         style="font-size:15.2296px;font-family:Strippy;-inkscape-font-specification:Strippy;letter-spacing:0px;word-spacing:0px;fill:#3088f1;fill-opacity:0.980392;stroke-width:0.5;stroke-opacity:0.980392"
         inkscape:label="ORDSCRIPT"
         aria-label="ORDSCRIPT" /></g></g></svg>
